<?xml version="1.0" encoding="UTF-8" standalone="no"?>
<svg width="100" height="100" viewBox="0 0 100 100" xmlns="http://www.w3.org/2000/svg">
  <circle cx="50" cy="50" r="25" fill="#f9d71c"/>
  <g stroke="#f9d71c" stroke-width="4">
    <line x1="50" y1="10" x2="50" y2="25"/>
    <line x1="50" y1="75" x2="50" y2="90"/>
    <line x1="10" y1="50" x2="25" y2="50"/>
    <line x1="75" y1="50" x2="90" y2="50"/>
    <line x1="22" y1="22" x2="33" y2="33"/>
    <line x1="67" y1="67" x2="78" y2="78"/>
    <line x1="22" y1="78" x2="33" y2="67"/>
    <line x1="67" y1="33" x2="78" y2="22"/>
  </g>
</svg>
<svg xmlns="http://www.w3.org/2000/svg" viewBox="0 0 64 64">
  <defs>
    <linearGradient id="a" x1="26.75" y1="22.91" x2="37.25" y2="41.09" gradientUnits="userSpaceOnUse">
      <stop offset="0" stop-color="#fbbf24"/>
      <stop offset="0.45" stop-color="#fbbf24"/>
      <stop offset="1" stop-color="#f59e0b"/>
    </linearGradient>
  </defs>
  <circle cx="32" cy="32" r="10.5" stroke="#f8af18" stroke-miterlimit="10" stroke-width="0.5" fill="url(#a)"/>
  <path d="M32,15.71V9.5m0,45V48.29M43.52,20.48l4.39-4.39M16.09,47.91l4.39-4.39m0-23-4.39-4.39M47.91,47.91l-4.39-4.39M15.71,32H9.5m45,0H48.29" fill="none" stroke="#fbbf24" stroke-linecap="round" stroke-miterlimit="10" stroke-width="3"/>
</svg>
