<?xml version="1.0" encoding="UTF-8" standalone="no"?>
<svg width="100" height="100" viewBox="0 0 100 100" xmlns="http://www.w3.org/2000/svg">
  <path d="M30 40 A20 20 0 0 1 70 40 Q50 60 30 40" fill="#ffffff"/>
  <path d="M20 50 A25 25 0 0 1 80 50 Q50 75 20 50" fill="#ffffff" opacity="0.8"/>
  <path d="M40 60 A15 15 0 0 1 60 60 Q50 70 40 60" fill="#ffffff" opacity="0.6"/>
</svg>
<svg xmlns="http://www.w3.org/2000/svg" viewBox="0 0 64 64">
  <defs>
    <linearGradient id="a" x1="22.56" y1="21.96" x2="39.2" y2="50.8" gradientUnits="userSpaceOnUse">
      <stop offset="0" stop-color="#f3f7fe"/>
      <stop offset="0.45" stop-color="#f3f7fe"/>
      <stop offset="1" stop-color="#deeafb"/>
    </linearGradient>
  </defs>
  <path d="M46.5,31.5l-.32,0a10.49,10.49,0,0,0-19.11-8,7,7,0,0,0-10.57,6,7.21,7.21,0,0,0,.1,1.14A7.5,7.5,0,0,0,18,45.5a4.19,4.19,0,0,0,.5,0h28a7,7,0,0,0,0-14Z" fill="url(#a)" stroke="#e6effc" stroke-miterlimit="10" stroke-width="0.5"/>
</svg>
